<?xml version="1.0" standalone="no"?>
<!DOCTYPE svg PUBLIC "-//W3C//DTD SVG 20010904//EN"
 "http://www.w3.org/TR/2001/REC-SVG-20010904/DTD/svg10.dtd">
<svg version="1.0" xmlns="http://www.w3.org/2000/svg"
 width="500.000000pt" height="500.000000pt" viewBox="0 0 500.000000 500.000000"
 preserveAspectRatio="xMidYMid meet">

<g transform="translate(0.000000,500.000000) scale(0.100000,-0.100000)"
fill="#000000" stroke="none">
<path d="M2658 3916 l-47 -53 -128 -5 -128 -5 -43 48 c-23 26 -51 51 -61 54
-20 6 -290 -108 -303 -128 -4 -7 -5 -43 -2 -82 l5 -70 -89 -92 -90 -92 -78 -3
-78 -3 -53 -135 c-29 -74 -53 -144 -53 -155 0 -12 23 -41 54 -70 l55 -50 3
-122 2 -123 -52 -53 c-29 -29 -52 -59 -52 -68 0 -8 27 -75 59 -149 l60 -135
83 -3 83 -3 90 -86 90 -86 -3 -72 c-3 -51 0 -74 10 -82 16 -14 274 -113 293
-113 7 0 35 24 62 54 l48 55 127 3 127 3 53 -52 c30 -29 58 -53 64 -53 15 0
266 109 283 123 10 9 12 30 8 89 l-5 78 47 43 c26 23 65 63 86 90 l39 47 82 0
82 0 51 131 c72 185 72 168 6 227 l-57 50 -3 128 -3 128 54 51 c30 28 54 55
54 60 0 6 -28 73 -63 150 l-62 140 -87 3 -88 3 -36 43 c-20 24 -58 60 -85 81
l-49 37 0 83 0 83 -143 56 c-78 31 -149 56 -158 56 -8 0 -36 -24 -61 -54z
m235 -79 l57 -21 0 -77 0 -78 59 -45 c33 -25 80 -71 106 -101 l47 -54 80 -3
81 -3 45 -103 45 -103 -50 -52 -51 -52 3 -154 3 -154 51 -44 c28 -25 51 -48
51 -53 0 -5 -19 -57 -41 -116 l-41 -106 -72 7 -72 6 -38 -48 c-21 -26 -68 -76
-105 -110 l-66 -63 0 -76 0 -77 -99 -44 c-55 -24 -103 -43 -107 -43 -5 0 -29
22 -54 49 l-46 49 -157 -5 -157 -6 -43 -48 c-24 -27 -51 -49 -60 -48 -9 0 -60
17 -112 38 l-95 37 -3 82 c-3 80 -3 81 -36 102 -19 11 -66 54 -105 95 l-71 75
-78 0 -78 0 -47 106 -46 107 56 52 c53 51 55 55 49 91 -4 21 -7 88 -7 150 l0
113 -55 49 -56 48 44 109 43 108 76 -2 75 -2 29 40 c15 23 62 73 103 112 l75
72 -6 73 -5 73 51 24 c29 13 78 34 110 47 l57 24 53 -51 52 -51 153 5 153 6
45 53 46 53 51 -21 c29 -11 78 -30 110 -41z"/>
<path d="M2318 3587 c-105 -32 -180 -79 -268 -167 -59 -58 -85 -94 -117 -160
-53 -110 -68 -173 -67 -291 2 -175 64 -321 189 -445 137 -136 283 -191 480
-181 155 7 254 45 370 139 156 129 244 326 232 523 -16 266 -175 479 -425 573
-55 21 -88 26 -192 29 -109 3 -135 0 -202 -20z m337 -62 c69 -17 191 -91 252
-151 68 -69 133 -188 152 -282 44 -213 -39 -438 -211 -567 -51 -39 -135 -85
-154 -85 -2 0 -4 70 -4 155 l0 155 73 0 c43 0 78 5 85 12 8 8 12 45 12 101 l0
90 35 31 c63 54 58 144 -10 186 -39 24 -75 25 -115 5 -42 -22 -60 -53 -60
-104 0 -38 5 -49 40 -82 39 -37 40 -40 40 -108 l0 -70 -82 -3 -83 -3 -5 -195
-5 -195 -37 -3 -38 -3 0 390 c0 378 1 390 20 396 25 8 60 65 60 99 0 35 -24
81 -52 100 -28 20 -90 21 -126 2 -76 -39 -72 -165 6 -201 l22 -10 0 -387 0
-388 -40 0 -40 0 0 189 c0 142 -3 191 -13 199 -7 6 -46 12 -87 14 l-75 3 -3
70 -2 70 34 22 c45 29 65 87 47 131 -22 53 -57 77 -111 77 -57 0 -94 -28 -111
-85 -14 -47 7 -101 50 -126 30 -18 30 -18 33 -118 l3 -101 83 -3 82 -3 0 -154
c0 -100 -4 -155 -10 -155 -36 0 -143 71 -210 139 -143 143 -196 321 -155 514
39 184 183 350 363 417 92 35 242 41 347 15z m-124 -194 c20 -16 22 -23 14
-47 -14 -38 -56 -45 -79 -12 -20 29 -20 34 4 58 25 25 32 25 61 1z m-311 -230
c16 -31 12 -49 -14 -66 -44 -29 -91 18 -66 65 14 27 65 27 80 1z m643 -2 c15
-24 1 -66 -25 -72 -46 -13 -79 33 -51 73 17 25 60 24 76 -1z"/>
<path d="M1530 1655 l0 -175 30 0 29 0 3 73 3 72 78 3 c74 3 77 4 77 27 0 24
-2 25 -80 25 l-80 0 0 50 0 50 90 0 c89 0 90 0 90 25 l0 25 -120 0 -120 0 0
-175z"/>
<path d="M1883 1713 c-28 -65 -63 -144 -77 -175 l-26 -58 31 0 c26 0 33 6 47
40 l17 40 91 0 91 0 16 -40 c13 -35 20 -40 46 -40 17 0 31 2 31 3 0 2 -33 80
-74 173 -73 168 -74 169 -107 172 l-34 3 -52 -118z m141 -81 c7 -21 4 -22 -59
-22 -37 0 -65 3 -63 8 2 4 16 40 33 81 l29 74 27 -60 c15 -33 30 -69 33 -81z"/>
<path d="M2200 1654 l0 -176 109 4 c122 3 158 19 172 73 10 36 -12 91 -41 100
-21 7 -21 7 4 32 25 25 33 63 20 98 -13 32 -59 45 -164 45 l-100 0 0 -176z
m198 114 c7 -7 12 -21 12 -33 0 -35 -20 -45 -87 -45 l-63 0 0 45 0 45 63 0
c36 0 68 -5 75 -12z m9 -149 c21 -18 12 -62 -17 -76 -14 -7 -49 -13 -77 -13
l-53 0 0 56 0 57 66 -6 c37 -4 73 -12 81 -18z"/>
<path d="M2560 1655 l0 -175 105 0 105 0 0 25 c0 24 -2 25 -75 25 l-75 0 0
150 0 150 -30 0 -30 0 0 -175z"/>
<path d="M2883 1713 c-28 -65 -63 -144 -77 -175 l-26 -58 31 0 c26 0 33 6 47
40 l17 40 91 0 92 0 16 -40 c14 -34 20 -40 46 -40 16 0 30 2 30 3 0 2 -33 80
-74 173 -73 168 -74 169 -107 172 l-34 3 -52 -118z m141 -81 c7 -21 4 -22 -59
-22 -37 0 -65 3 -63 8 2 4 16 40 33 81 l29 74 27 -60 c15 -33 30 -69 33 -81z"/>
<path d="M3200 1655 l0 -177 116 4 116 3 30 34 c25 28 29 40 25 69 -7 38 -32
72 -55 72 -10 0 -6 8 12 25 34 31 36 92 5 121 -18 16 -40 20 -135 22 l-114 4
0 -177z m198 113 c7 -7 12 -21 12 -33 0 -35 -20 -45 -87 -45 l-63 0 0 45 0 45
63 0 c36 0 68 -5 75 -12z m15 -157 c42 -42 -6 -81 -98 -81 l-55 0 0 48 c0 27
3 52 8 56 13 15 126 -3 145 -23z"/>
<path d="M2140 1255 c0 -66 12 -86 24 -40 8 32 19 32 45 -1 31 -39 46 -24 16
16 l-25 34 27 28 c20 21 23 28 11 28 -9 0 -28 -13 -41 -30 -14 -16 -28 -30
-31 -30 -3 0 -6 14 -6 30 0 17 -4 30 -10 30 -6 0 -10 -28 -10 -65z"/>
<path d="M2297 1313 c-4 -3 -7 -33 -7 -65 0 -45 3 -58 15 -58 9 0 15 9 15 25
0 20 5 25 25 25 14 0 25 5 25 10 0 6 -11 10 -25 10 -18 0 -25 5 -25 20 0 16 7
20 30 20 17 0 30 5 30 10 0 11 -73 14 -83 3z"/>
<path d="M2420 1267 c0 -59 12 -77 50 -77 39 0 60 29 60 83 0 61 -18 61 -22 1
-3 -50 -22 -72 -52 -61 -12 5 -16 19 -16 57 0 27 -4 50 -10 50 -5 0 -10 -24
-10 -53z"/>
<path d="M2580 1255 c0 -37 4 -65 10 -65 6 0 10 9 10 20 0 15 7 20 28 20 34 0
52 16 52 47 0 26 -27 43 -69 43 l-31 0 0 -65z m75 20 c0 -14 -8 -21 -27 -23
-24 -3 -28 0 -28 23 0 23 4 26 28 23 19 -2 27 -9 27 -23z"/>
<path d="M2720 1255 c0 -37 4 -65 10 -65 6 0 10 21 11 48 l0 47 22 -42 c11
-24 24 -43 27 -43 3 0 16 19 27 43 l22 42 0 -47 c1 -27 6 -48 11 -48 6 0 10
28 10 65 0 77 -17 87 -45 25 -10 -22 -21 -40 -25 -40 -4 0 -15 18 -25 40 -28
62 -45 52 -45 -25z"/>
</g>
</svg>
